<ttFont>
<head>
    <!-- Most of this table will be recalculated by the compiler -->
    <tableVersion value="1.0"/>
    <fontRevision value="0.84999"/>
    <checkSumAdjustment value="0xc987aa47"/>
    <magicNumber value="0x5f0f3cf5"/>
    <flags value="00000000 00000011"/>
    <unitsPerEm value="1000"/>
    <created value="Wed Sep  1 18:35:59 2021"/>
    <modified value="Wed Sep  1 18:35:59 2021"/>
    <xMin value="-127"/>
    <yMin value="-216"/>
    <xMax value="623"/>
    <yMax value="1024"/>
    <macStyle value="00000000 00000000"/>
    <lowestRecPPEM value="7"/>
    <fontDirectionHint value="2"/>
    <indexToLocFormat value="0"/>
    <glyphDataFormat value="0"/>
  </head>
          <CharString index="0">
            800 rmoveto
            return
          </CharString>
          <CharString index="1">
            -57 27 -31 50 return
          </CharString>
          <CharString index="2">
            87 180 87 hstem
            90 470 vstem
            90 return
          </CharString>
          <CharString index="3">
            69 31 -120 114 hhcurveto
            return
          </CharString>
          <CharString index="4">
            0 89 419 90 return
          </CharString>
          <CharString index="5">
            848 -20 hstem
            return
          </CharString>
          <CharString index="6">
            598 rmoveto
            -90 return
          </CharString>
          <CharString index="7">
            -73 callsubr
            80 hlineto
            49 6 21 26 30 return
          </CharString>
          <CharString index="8">
            rmoveto
            -53 callsubr
            -106 callsubr
            hvcurveto
            return
          </CharString>
          <CharString index="9">
            rmoveto
            -60 callsubr
            return
          </CharString>
          <CharString index="10">
            11 63 35 57 63 52 rrcurveto
            -114 hlineto
            -40 -63 -19 -74 -97 vvcurveto
            return
          </CharString>
          <CharString index="11">
            rmoveto
            468 88 -468 hlineto
            return
          </CharString>
          <CharString index="12">
            -163 -89 422 89 -163 return
          </CharString>
          <CharString index="13">
            75 -27 36 -59 -30 callsubr
            return
          </CharString>
          <CharString index="14">
            0 96 608 96 hstem
            return
          </CharString>
          <CharString index="15">
            163 72 163 vstem
            return
          </CharString>
          <CharString index="16">
            rmoveto
            146 51 80 92 return
          </CharString>
          <CharString index="17">
            21 -21 800 -20 hstem
            return
          </CharString>
          <CharString index="18">
            hlineto
            40 206 rlineto
            return
          </CharString>
          <CharString index="19">
            hlineto
            -40 -206 rlineto
            return
          </CharString>
          <CharString index="20">
            8 7 1 1 7 return
          </CharString>
          <CharString index="21">
            rmoveto
            -100 callsubr
            -104 callsubr
            -351 -195 rmoveto
            80 hlineto
            49 6 21 26 30 -104 callsubr
            -73 callsubr
            endchar
          </CharString>
          <CharString index="22">
            -83 callsubr
            148 -170 rmoveto
            -61 callsubr
            -106 callsubr
            -87 callsubr
            vhcurveto
            -40 callsubr
          </CharString>
          <CharString index="23">
            -15 89 449 90 hstem
            82 95 296 95 vstem
            325 -15 rmoveto
            153 90 116 199 197 -90 116 -153 -153 -90 -116 -197 -199 90 -116 153 hvcurveto
            -148 315 rmoveto
            145 53 78 95 95 53 -78 -145 -146 -53 -80 -95 -95 -53 80 146 vhcurveto
            endchar
          </CharString>
          <CharString index="24">
            -71 callsubr
            -94 callsubr
            -106 callsubr
            vhcurveto
            return
          </CharString>
          <CharString index="25">
            -8 175 -152 -21 hstemhm
            248 163 hintmask 01100000
            325 -8 -71 callsubr
            hintmask 10100000
            -94 callsubr
            vhcurveto
            hintmask 01100000
            -106 callsubr
            vhcurveto
            endchar
          </CharString>
          <CharString index="26">
            -15 93 644 93 hstem
            63 100 324 100 vstem
            325 -15 rmoveto
            176 86 135 280 -56 callsubr
            -280 86 -135 176 hvcurveto
            -162 415 rmoveto
            222 51 100 111 return
          </CharString>
          <CharString index="27">
            rmoveto
            233 hlineto
            -84 -180 rlineto
            -149 -87 108 hlineto
            -76 -163 rlineto
            88 hlineto
            76 163 rlineto
            274 87 -233 hlineto
            84 180 rlineto
            149 87 -108 hlineto
            76 163 rlineto
            -88 hlineto
            -76 -163 rlineto
            -274 hlineto
            endchar
          </CharString>
          <CharString index="28">
            -96 callsubr
            160 -223 -98 callsubr
            357 vmoveto
            -60 callsubr
            endchar
          </CharString>
          <CharString index="29">
            122 -101 callsubr
            243 -531 vlineto
            -67 -31 -37 -57 -54 -32 28 53 -6 vhcurveto
            -94 hlineto
            -107 8 69 -62 109 hhcurveto
            117 67 71 121 hvcurveto
            621 vlineto
            return
          </CharString>
          <CharString index="30">
            rmoveto
            57 57 -157 157 157 157 -57 57 -157 -157 -157 157 -57 -57 157 -157 -157 -157 57 -57 157 157 rlineto
            endchar
          </CharString>
          <CharString index="31">
            -48 callsubr
            -8 -99 callsubr
            return
          </CharString>
          <CharString index="32">
            rmoveto
            -132 vlineto
            422 -238 rlineto
            101 vlineto
            -357 198 rlineto
            10 vlineto
            357 198 rlineto
            101 vlineto
            endchar
          </CharString>
          <CharString index="33">
            rmoveto
            132 vlineto
            -422 238 rlineto
            -101 vlineto
            357 -198 rlineto
            -10 vlineto
            -357 -198 rlineto
            -101 vlineto
            endchar
          </CharString>
          <CharString index="34">
            78 50 56 103 11 hvcurveto
            -80 hlineto
            -49 -6 -21 -26 -30 -69 -31 120 -114 hhcurveto
            -78 -50 -56 -103 -11 hvcurveto
            return
          </CharString>
          <CharString index="35">
            -91 callsubr
            -46 callsubr
            -92 -51 79 147 vhcurveto
            endchar
          </CharString>
          <CharString index="36">
            rmoveto
            -87 callsubr
            hvcurveto
            -11 -63 -35 -57 -63 -52 rrcurveto
            -41 callsubr
            return
          </CharString>
          <CharString index="37">
            -63 9 rlineto
            -73 12 -36 40 71 vvcurveto
            91 51 51 89 90 49 -47 -96 9 vhcurveto
            99 hlineto
            return
          </CharString>
          <CharString index="38">
            -89 vlineto
            -130 -20 -75 -113 -181 vvcurveto
            -181 75 -111 130 -17 vhcurveto
            return
          </CharString>
          <CharString index="39">
            -15 83 179 83 140 83 179 83 hstemhm
            63 86 102 85 -22 85 102 86 return
          </CharString>
          <CharString index="40">
            rmoveto
            -50 26 -27 49 49 26 27 50 50 -26 27 -49 -49 -26 -27 -50 vhcurveto
            endchar
          </CharString>
          <CharString index="41">
            rmoveto
            -106 callsubr
            -53 callsubr
            vhcurveto
            endchar
          </CharString>
          <CharString index="42">
            356 88 hstem
            91 468 vstem
            91 356 -96 callsubr
            endchar
          </CharString>
          <CharString index="43">
            306 88 hstem
            91 468 vstem
            91 306 -96 callsubr
            endchar
          </CharString>
          <CharString index="44">
            -87 vlineto
            -127 -14 -75 -86 -136 vvcurveto
            -127 68 -76 131 -21 vhcurveto
            return
          </CharString>
          <CharString index="45">
            rmoveto
            470 87 -470 hlineto
            -354 vmoveto
            470 87 -470 hlineto
            endchar
          </CharString>
          <CharString index="46">
            -41 callsubr
            -94 callsubr
            return
          </CharString>
          <CharString index="47">
            -47 30 -29 44 44 30 29 47 48 -30 29 -44 -44 -30 -29 -48 vhcurveto
            return
          </CharString>
          <CharString index="48">
            84 36 84 36 84 36 84 hstem
            80 80 330 80 vstem
            431 return
          </CharString>
          <CharString index="49">
            191 204 rmoveto
            -101 hlineto
            12 -132 72 -74 126 -11 rrcurveto
            return
          </CharString>
          <CharString index="50">
            153 58 88 58 153 hstem
            251 148 vstem
            91 return
          </CharString>
          <CharString index="51">
            280 -86 135 -176 -176 -86 -135 -280 return
          </CharString>
          <CharString index="52">
            87 vlineto
            124 13 74 85 136 vvcurveto
            127 -68 76 return
          </CharString>
          <CharString index="53">
            848 rmoveto
            -47 callsubr
            return
          </CharString>
          <CharString index="54">
            50 27 31 57 56 -27 31 -50 -30 callsubr
            return
          </CharString>
          <CharString index="55">
            -179 -21 185 88 452 73 -73 88 hstemhm
            return
          </CharString>
          <CharString index="56">
            -46 callsubr
            hvcurveto
            return
          </CharString>
          <CharString index="57">
            -15 88 -73 73 452 88 235 -20 hstemhm
            return
          </CharString>
          <CharString index="58">
            rlineto
            -109 hlineto
            -169 -353 rlineto
            endchar
          </CharString>
          <CharString index="59">
            175 hstem
            248 154 vstem
            325 return
          </CharString>
          <CharString index="60">
            18 -382 rlineto
            72 hlineto
            18 382 rlineto
            return
          </CharString>
          <CharString index="61">
            92 51 -80 -146 -147 -51 -79 -92 return
          </CharString>
          <CharString index="62">
            107 15 69 83 10 127 rrcurveto
            -91 hlineto
            return
          </CharString>
          <CharString index="63">
            -222 -51 -100 -111 return
          </CharString>
          <CharString index="64">
            -147 83 -83 1054 -83 83 hstemhm
            return
          </CharString>
          <CharString index="65">
            -102 callsubr
            120 410 vstem
            return
          </CharString>
          <CharString index="66">
            114 hlineto
            40 63 19 74 97 vvcurveto
            return
          </CharString>
          <CharString index="67">
            -11 -63 -35 -57 -63 -52 rrcurveto
            endchar
          </CharString>
          <CharString index="68">
            hstem
            111 428 vstem
            482 return
          </CharString>
          <CharString index="69">
            114 598 rmoveto
            -598 96 return
          </CharString>
          <CharString index="70">
            78 49 -55 -100 10 hvcurveto
            91 hlineto
            return
          </CharString>
          <CharString index="71">
            33 18 -31 -58 -59 -18 -31 -33 return
          </CharString>
          <CharString index="72">
            96 443 vlineto
            50 18 26 36 return
          </CharString>
          <CharString index="73">
            335 96 -435 hlineto
            endchar
          </CharString>
          <CharString index="74">
            rmoveto
            -86 502 86 vlineto
            endchar
          </CharString>
          <CharString index="75">
            rmoveto
            -86 560 86 vlineto
            endchar
          </CharString>
          <CharString index="76">
            -92 -51 79 147 hvcurveto
            endchar
          </CharString>
          <CharString index="77">
            -50 -27 -31 -56 return
          </CharString>
        <CharString name=".notdef">
          418 -200 72 35 49 35 24 35 49 35 63 35 25 59 23 35 25 34 39 -28 28 35 28 36 38 35 28 34 39 35 70 hstemhm
          98 77 -77 78 -78 147 -147 217 -105 35 -35 221 -151 35 -35 151 -81 81 hintmask 111111111011111100010101
          431 850 rmoveto
          -333 -1050 333 hlineto
          -256 72 rmoveto
          35 vlineto
          74 49 rlineto
          -74 35 175 -35 -34 hlineto
          -73 -49 rlineto
          107 -35 hlineto
          -175 143 rmoveto
          119 175 -119 vlineto
          -175 182 rmoveto
          119 35 -84 105 49 vlineto
          hintmask 000001100000000001000010
          -35 -24 -35 59 hlineto
          hintmask 000010110100000100000101
          105 -119 hlineto
          -175 142 rmoveto
          35 140 70 35 -105 vlineto
          -175 60 rmoveto
          hintmask 000000011011110100000101
          34 70 39 -70 35 175 -35 -70 -73 vlineto
          -105 136 rmoveto
          109 105 -73 70 -36 vlineto
          -175 137 rmoveto
          34 vlineto
          hintmask 000000000000111010000001
          70 39 -69 35 174 -35 -70 -39 70 -34 hlineto
          hintmask 000100000000000000001000
          -140 -622 rmoveto
          hintmask 000100000000000000100000
          105 49 hlineto
          hintmask 000100000000000000001000
          -105 hlineto
          hintmask 000000000001000000010000
          472 vmoveto
          hintmask 000000000001000001000000
          35 38 hlineto
          hintmask 000000000001000000010000
          -35 hlineto
          endchar
        </CharString>
        <CharString name="A">
          21 -21 283 92 351 74 hstem
          55 540 vstem
          490 hmoveto
          105 hlineto
          -190 800 rlineto
          -160 hlineto
          -190 -800 rlineto
          100 hlineto
          65 283 rlineto
          205 hlineto
          -184 92 rmoveto
          81 351 81 -351 rlineto
          endchar
        </CharString>
        <CharString name="B">
          0 96 259 93 256 96 hstemhm
          114 100 265 98 -92 98 hintmask 11110100
          333 -107 callsubr
          -219 -800 213 hlineto
          hintmask 11111000
          160 90 78 139 97 -45 59 -88 14 hvcurveto
          28 vlineto
          hintmask 11110100
          91 14 48 58 97 vvcurveto
          138 -91 78 -159 vhcurveto
          -119 -704 rmoveto
          hintmask 11111000
          259 113 vlineto
          100 52 -45 -85 -85 -52 -44 -100 hvcurveto
          -113 352 rmoveto
          256 119 vlineto
          hintmask 11110100
          100 52 -44 -84 -84 -52 -44 -100 hvcurveto
          endchar
        </CharString>
        <CharString name="C">
          -15 95 640 95 hstem
          85 99 vstem
          338 -15 rmoveto
          142 79 90 182 18 hvcurveto
          -98 hlineto
          -121 -13 -44 -56 -84 hhcurveto
          -106 -48 100 220 220 51 100 112 85 45 -61 -132 14 hvcurveto
          98 hlineto
          192 -18 -81 96 -143 hhcurveto
          -175 -87 -136 -279 -279 84 -136 169 hvcurveto
          endchar
        </CharString>
        <CharString name="D">
          -93 callsubr
          94 100 285 100 vstem
          94 hmoveto
          190 hlineto
          198 97 131 269 269 -97 131 -198 hvcurveto
          -190 hlineto
          100 -704 rmoveto
          608 90 vlineto
          131 64 -100 -204 -204 -64 -100 -131 hvcurveto
          endchar
        </CharString>
        <CharString name="E">
          0 96 261 92 255 96 hstem
          136 100 vstem
          136 hmoveto
          415 96 -315 261 282 92 -282 255 -34 callsubr
        </CharString>
        <CharString name="Euro">
          -15 95 200 81 90 81 188 95 hstemhm
          129 98 258 96 -81 96 hintmask 11111010
          367 -15 rmoveto
          hintmask 11111100
          128 74 86 165 12 hvcurveto
          -96 hlineto
          -107 -11 -37 -49 -70 hhcurveto
          -77 -43 63 137 -15 hvcurveto
          193 81 -198 39 hlineto
          18 0 17 1 16 vhcurveto
          197 81 -191 hlineto
          128 16 44 60 76 hhcurveto
          hintmask 11111010
          79 40 -55 -121 11 hvcurveto
          96 hlineto
          178 -11 -78 93 -137 hhcurveto
          -133 -78 -93 -190 -23 hvcurveto
          -96 -81 90 hlineto
          -1 -16 0 -17 -18 vvcurveto
          -13 0 -13 1 -13 vhcurveto
          -90 -81 95 hlineto
          -198 21 77 -97 134 hhcurveto
          endchar
        </CharString>
        <CharString name="F">
          21 -21 343 96 265 96 hstem
          150 100 vstem
          150 hmoveto
          100 343 292 96 -292 265 -34 callsubr
        </CharString>
        <CharString name="G">
          -15 92 -77 77 221 96 326 95 hstemhm
          75 99 295 85 -81 81 -74 98 hintmask 10111100
          305 -15 rmoveto
          72 44 32 65 20 hvcurveto
          hintmask 01111100
          28 -82 85 394 -235 -96 hlineto
          hintmask 10111010
          154 hlineto
          -152 -14 -44 -69 -81 hhcurveto
          -109 -51 101 222 220 52 100 114 hvcurveto
          hintmask 10111001
          83 45 -54 -119 12 hvcurveto
          98 hlineto
          179 -16 -80 89 -142 hhcurveto
          -177 -88 -136 -279 hvcurveto
          hintmask 10111100
          -276 82 -139 148 vhcurveto
          endchar
        </CharString>
        <CharString name="H">
          21 -21 357 92 351 -20 hstem
          94 100 262 100 vstem
          94 -107 callsubr
          -800 100 357 262 -357 100 800 -100 -351 -262 351 vlineto
          endchar
        </CharString>
        <CharString name="I">
          -93 callsubr
          275 100 vstem
          114 hmoveto
          422 96 -161 608 161 96 -422 -96 161 -608 -161 hlineto
          endchar
        </CharString>
        <CharString name="J">
          -15 96 623 96 hstem
          95 98 241 100 vstem
          313 -15 rmoveto
          140 81 86 148 hvcurveto
          581 -385 -96 285 -485 vlineto
          -90 -42 -48 -79 -78 -42 48 90 vhcurveto
          131 -98 -131 vlineto
          -148 80 -86 138 vhcurveto
          endchar
        </CharString>
        <CharString name="K">
          -90 callsubr
          129 100 vstem
          129 -107 callsubr
          -800 100 344 vlineto
          251 -344 rlineto
          121 hlineto
          -288 390 300 410 rlineto
          -115 hlineto
          -269 -371 rlineto
          371 vlineto
          endchar
        </CharString>
        <CharString name="L">
          0 96 704 -20 hstem
          166 99 vstem
          166 hmoveto
          417 96 -318 704 -99 hlineto
          endchar
        </CharString>
        <CharString name="M">
          21 -21 274 64 381 81 hstem
          72 95 316 95 vstem
          72 hmoveto
          95 477 hlineto
          -6 242 rlineto
          9 hlineto
          85 -445 rlineto
          140 hlineto
          85 445 rlineto
          9 hlineto
          -6 -242 rlineto
          -477 95 800 -161 vlineto
          -84 -462 rlineto
          -9 hlineto
          -85 462 rlineto
          -167 hlineto
          endchar
        </CharString>
        <CharString name="N">
          0 73 654 73 hstem
          94 100 262 100 vstem
          94 hmoveto
          100 489 hlineto
          -6 238 rlineto
          9 hlineto
          179 -727 rlineto
          180 800 -100 -488 hlineto
          6 -239 rlineto
          -9 hlineto
          -178 727 rlineto
          -181 hlineto
          endchar
        </CharString>
        <CharString name="O">
          -81 callsubr
          111 51 -100 -222 -44 callsubr
          -111 -51 100 222 vhcurveto
          endchar
        </CharString>
        <CharString name="P">
          21 -21 337 91 276 96 hstem
          128 99 275 99 vstem
          128 hmoveto
          99 337 132 hlineto
          150 92 87 143 144 -92 89 -150 hvcurveto
          -231 hlineto
          99 -372 rmoveto
          276 136 vlineto
          86 53 -52 -86 -86 -53 -52 -86 hvcurveto
          endchar
        </CharString>
        <CharString name="Q">
          -194 -21 200 93 644 93 hstem
          63 100 144 36 144 100 vstem
          325 78 rmoveto
          -111 -51 100 222 222 51 100 111 111 51 -100 -222 -222 -51 -100 -111 hvcurveto
          -262 322 rmoveto
          -270 80 -135 164 -10 vhcurveto
          -78 vlineto
          254 -122 rlineto
          95 vlineto
          -218 105 rlineto
          164 10 80 135 270 vvcurveto
          -56 callsubr
          vhcurveto
          endchar
        </CharString>
        <CharString name="R">
          21 -21 348 89 267 96 hstem
          114 99 276 99 vstem
          114 hmoveto
          99 348 89 hlineto
          189 -348 rlineto
          115 hlineto
          -200 354 rlineto
          115 22 67 78 117 vvcurveto
          142 -95 87 -157 vhcurveto
          -222 hlineto
          99 -363 rmoveto
          267 126 vlineto
          95 55 -48 -85 -85 -55 -49 -95 hvcurveto
          endchar
        </CharString>
        <CharString name="S">
          -15 96 267.5 101 269.5 96 hstem
          98 100 271 100 vstem
          191 204 rmoveto
          -101 hlineto
          -144 13 85 -75 149 hhcurveto
          144 88 88 148 127 -68 76 -131 21 hvcurveto
          -70 callsubr
          155 -11 -88 84 -148 hhcurveto
          -150 -90 -89 -149 -127 68 -76 131 -21 hvcurveto
          63 -9 rlineto
          73 -12 36 -40 -71 vvcurveto
          -90 -48 -50 -84 -90 -48 40 83 -8 vhcurveto
          endchar
        </CharString>
        <CharString name="T">
          21 -21 704 96 hstem
          275 100 vstem
          275 hmoveto
          100 704 201 96 -502 -96 201 hlineto
          endchar
        </CharString>
        <CharString name="U">
          -15 96 719 -20 hstem
          87 99 278 99 vstem
          87 800 rmoveto
          -558 vlineto
          -163 87 -94 151 151 87 94 163 vhcurveto
          558 -99 -558 vlineto
          -104 -49 -57 -90 -90 -49 57 104 vhcurveto
          558 vlineto
          endchar
        </CharString>
        <CharString name="V">
          0 74 726 -20 hstem
          55 540 vstem
          160 -107 callsubr
          -105 hlineto
          190 -800 rlineto
          160 hlineto
          190 800 rlineto
          -100 hlineto
          -167 -726 rlineto
          endchar
        </CharString>
        <CharString name="W">
          0 126 -126 134 -113 -21 490 108 0 -20 222 -20 hstemhm
          27 596 hintmask 00101110
          133 -107 callsubr
          -106 hlineto
          93 -800 rlineto
          143 hlineto
          hintmask 00110110
          63 490 60 -490 rlineto
          144 hlineto
          93 800 rlineto
          -101 hlineto
          hintmask 01001110
          -66 -666 -57 464 rlineto
          -141 hlineto
          hintmask 10001110
          -60 -472 rlineto
          endchar
        </CharString>
        <CharString name="X">
          -90 callsubr
          56 538 vstem
          169 -107 callsubr
          -113 hlineto
          187 -414 -173 -386 rlineto
          110 hlineto
          145 335 141 -335 rlineto
          114 hlineto
          -173 386 187 414 rlineto
          -108 hlineto
          -161 -364 rlineto
          endchar
        </CharString>
        <CharString name="Y">
          -90 callsubr
          275 100 vstem
          157 -107 callsubr
          -111 hlineto
          229 -458 rlineto
          -342 100 342 vlineto
          229 458 -49 callsubr
        </CharString>
        <CharString name="Z">
          -93 callsubr
          102 61 324 61 vstem
          102 hmoveto
          446 96 -385 hlineto
          385 536 rlineto
          168 -446 -96 385 vlineto
          -385 -536 rlineto
          endchar
        </CharString>
        <CharString name="_part.multiply">
          136 428 -39 callsubr
          136 rmoveto
          57 57 -371 371 -57 -57 rlineto
          endchar
        </CharString>
        <CharString name="a">
          -15 87 -51 -21 523 90 hstemhm
          102 98 228 96 hintmask 10111000
          74 397 rmoveto
          98 hlineto
          80 9 52 46 81 hhcurveto
          74 40 -42 -79 hvcurveto
          -35 vlineto
          -156 -28 rlineto
          -110 -21 -60 -66 -100 vvcurveto
          -101 64 -66 100 66 49 30 51 19 vhcurveto
          hintmask 01111000
          28 -66 96 419 hlineto
          124 -76 70 -134 vhcurveto
          hintmask 10111000
          -137 -91 -82 -134 -12 hvcurveto
          126 -239 rmoveto
          52 33 34 58 11 vhcurveto
          137 24 rlineto
          -48 vlineto
          -90 -59 -69 -78 -58 -33 32 54 vhcurveto
          endchar
        </CharString>
        <CharString name="ampersand">
          -15 96 638 96 hstemhm
          84 102 -43 96 115 96 11 90 -76 91 hintmask 11011000
          220 460 rmoveto
          8 -11 rlineto
          hintmask 11101010
          -70 -63 -74 -70 -124 vvcurveto
          -124 78 -83 118 83 66 41 78 46 vhcurveto
          91 -127 rlineto
          144 vlineto
          hintmask 11011100
          -52 74 19 59 13 72 5 83 rlinecurve
          -90 hlineto
          -2 -45 -4 -41 -6 -36 -106 151 rcurveline
          hintmask 11011000
          57 56 50 61 93 vvcurveto
          104 -58 63 -94 -96 -59 -64 -104 -57 23 -56 54 -74 vhcurveto
          hintmask 11101000
          -34 -265 rmoveto
          77 43 54 50 51 vhcurveto
          140 -195 rlineto
          -66 -30 -45 -35 -58 hhcurveto
          -60 -40 46 68 hvcurveto
          hintmask 11011000
          53 446 rmoveto
          49 23 29 36 34 22 -29 -47 -54 -26 -41 -35 -38 vhcurveto
          -13 18 rlineto
          -29 41 -12 34 38 vvcurveto
          endchar
        </CharString>
        <CharString name="approxequal">
          128 -59 callsubr
          368 -86 callsubr
        </CharString>
        <CharString name="approxequal.case">
          178 -59 callsubr
          418 -86 callsubr
        </CharString>
        <CharString name="asciicircum">
          749 66 hstem
          114 422 vstem
          114 530 rmoveto
          95 hlineto
          116 219 116 -219 rlineto
          95 hlineto
          -158 285 rlineto
          -106 hlineto
          endchar
        </CharString>
        <CharString name="asciitilde">
          248 84 36 84 hstemhm
          80 80 -80 490 -80 80 hintmask 11010000
          431 248 rmoveto
          hintmask 11101000
          -100 callsubr
          hhcurveto
          hintmask 11010000
          -104 callsubr
          endchar
        </CharString>
        <CharString name="asciitilde.case">
          298 84 36 84 hstemhm
          80 80 -80 490 -80 80 hintmask 11010000
          431 298 rmoveto
          hintmask 11101000
          -100 callsubr
          hhcurveto
          hintmask 11010000
          -104 callsubr
          endchar
        </CharString>
        <CharString name="asterisk">
          605 -20 231 -20 hstem
          281 88 vstem
          274 816 rmoveto
          14 -185 -171 71 -31 -97 179 -44 -119 -141 82 -60 97 158 97 -158 82 60 -119 141 179 44 -31 97 -171 -71 14 185 rlineto
          endchar
        </CharString>
        <CharString name="at">
          -132 73 155 77 -62 62 -13 13 334 13 -13 77 156 75 hstemhm
          66 79 105 79 170 77 -73 73 -69 69 hintmask 1100011110100000
          353 -132 rmoveto
          55 41 11 23 30 hvcurveto
          72 vlineto
          -22 -29 -42 -11 -55 hhcurveto
          -140 -68 131 268 269 67 131 137 hvcurveto
          hintmask 1100101111000000
          101 49 -70 -146 hvcurveto
          -4 -28 vlineto
          hintmask 1100011110010000
          43 -10 -28 21 -46 hhcurveto
          -92 -45 -79 -165 -165 45 -79 92 52 30 21 43 10 hvcurveto
          hintmask 1001011110010000
          28 hlineto
          hintmask 1010011110010000
          -49 vlineto
          hintmask 1010011110100000
          69 413 hlineto
          196 -75 95 -152 -190 -93 -155 -320 vhcurveto
          hintmask 1100011110100000
          -318 94 -154 193 vhcurveto
          -24 472 rmoveto
          113 29 54 58 58 29 -54 -113 -113 -29 -54 -58 -58 -29 54 113 vhcurveto
          endchar
        </CharString>
        <CharString name="b">
          -50 callsubr
          108 91 -91 96 281 97 hintmask 10110110
          372 -15 rmoveto
          132 78 116 198 198 -78 116 -132 -72 -50 -33 -59 -18 hvcurveto
          -28 327 -96 hlineto
          hintmask 01110110
          -848 96 vlineto
          hintmask 10110110
          77 28 vlineto
          -59 18 50 -33 72 hhcurveto
          hintmask 10111010
          -173 314 -72 callsubr
        </CharString>
        <CharString name="backslash">
          -42 callsubr
          120 848 rmoveto
          316 -1018 rlineto
          94 hlineto
          -316 1018 rlineto
          endchar
        </CharString>
        <CharString name="bar">
          860 -20 hstem
          284 82 vstem
          366 860 rmoveto
          -82 -920 82 hlineto
          endchar
        </CharString>
        <CharString name="braceleft">
          -43 callsubr
          232 62 8 88 -68 88 hintmask 00101000
          503 824 rmoveto
          83 vlineto
          -122 -8 -79 -76 -108 vvcurveto
          hintmask 01011000
          -52 20 -56 -55 vvcurveto
          -84 -28 -38 -62 1 vhcurveto
          -102 vlineto
          hintmask 01000100
          62 1 28 -38 -84 -55 -20 -56 -52 vvcurveto
          hintmask 10001000
          -108 79 -76 122 -8 vhcurveto
          83 vlineto
          -71 7 -42 37 57 62 20 67 62 vvcurveto
          hintmask 01011000
          88 -38 48 -78 9 vhcurveto
          14 vlineto
          hintmask 01000100
          78 9 38 48 88 62 -20 67 62 vvcurveto
          hintmask 00101000
          57 42 37 71 7 vhcurveto
          endchar
        </CharString>
        <CharString name="braceright">
          -43 callsubr
          240 88 -68 88 8 62 hintmask 00101000
          147 907 rmoveto
          -83 vlineto
          71 -7 42 -37 -57 -62 -20 -67 -62 vvcurveto
          hintmask 01001100
          -88 38 -48 78 -9 vhcurveto
          -14 vlineto
          hintmask 01010000
          -78 -9 -38 -48 -88 -62 20 -67 -62 vvcurveto
          hintmask 10001000
          -57 -42 -37 -71 -7 vhcurveto
          -83 vlineto
          122 8 79 76 108 vvcurveto
          hintmask 01001100
          52 -20 56 55 vvcurveto
          84 28 38 62 -1 vhcurveto
          102 vlineto
          hintmask 01010000
          -62 -1 -28 38 84 55 20 56 52 vvcurveto
          hintmask 00101000
          108 -79 76 -122 8 vhcurveto
          endchar
        </CharString>
        <CharString name="bracketleft">
          -138 82 872 82 hstemhm
          290 85 -85 213 hintmask 11010000
          503 898 rmoveto
          hintmask 11100000
          -213 -1036 hlineto
          hintmask 11010000
          213 82 hlineto
          hintmask 11100000
          -128 872 hlineto
          hintmask 11010000
          128 hlineto
          endchar
        </CharString>
        <CharString name="bracketright">
          -138 82 872 82 hstemhm
          147 213 -85 85 hintmask 11100000
          147 898 rmoveto
          -82 vlineto
          hintmask 11010000
          128 -872 hlineto
          hintmask 11100000
          -128 -82 hlineto
          hintmask 11010000
          213 1036 hlineto
          endchar
        </CharString>
        <CharString name="bullet">
          177 346 hstem
          152 346 vstem
          325 177 rmoveto
          113 60 60 113 113 -60 60 -113 -113 -60 -60 -113 -113 60 -60 113 hvcurveto
          endchar
        </CharString>
        <CharString name="c">
          -15 89 449 90 hstemhm
          98 95 277 91 -80 91 hintmask 11110000
          339 -15 rmoveto
          127 84 86 141 11 hvcurveto
          -91 hlineto
          -89 -10 -47 -49 -74 hhcurveto
          -95 -51 78 144 147 53 80 98 hvcurveto
          hintmask 11101000
          -37 callsubr
          152 -10 -86 93 -130 hhcurveto
          -156 -92 -117 -200 hvcurveto
          hintmask 11110000
          -197 89 -114 152 vhcurveto
          endchar
        </CharString>
        <CharString name="cent">
          8 -21 623 -20 21 -20 hstemhm
          98 95 110 72 95 91 -80 91 hintmask 10111100
          303 -101 rmoveto
          72 88 hlineto
          -45 callsubr
          -8 -74 -34 -46 -53 -14 rrcurveto
          442 vlineto
          hintmask 10111010
          60 -13 37 -53 9 -86 rrcurveto
          91 hlineto
          -9 140 -74 90 -114 13 rrcurveto
          hintmask 11011100
          88 -72 -69 callsubr
          -110 309 rmoveto
          125 38 77 72 20 vhcurveto
          -440 vlineto
          -72 18 -38 75 125 vvcurveto
          endchar
        </CharString>
        <CharString name="cent.bold">
          -101 175 -87 87 -66 -21 536 176 -89 -20 21 -20 hstemhm
          98 95 110 72 95 91 -80 91 hintmask 0011001100000000
          303 699 rmoveto
          hintmask 0010101100000000
          -69 callsubr
          hintmask 1000011100000000
          -88 72 vlineto
          hintmask 0010011110000000
          88 vlineto
          -45 callsubr
          hintmask 0101001110000000
          -89 -10 -47 -49 -74 hhcurveto
          -95 -51 78 144 147 53 80 98 hvcurveto
          hintmask 0011001101000000
          -37 callsubr
          hintmask 0010011101000000
          -9 140 -74 90 -114 13 rrcurveto
          hintmask 0011001100000000
          88 vlineto
          endchar
        </CharString>
        <CharString name="colon">
          -8 175 263 -76 callsubr
          -77 526 -66 callsubr
        </CharString>
        <CharString name="colon.case">
          93 175 264 -48 callsubr
          93 -99 callsubr
          -77 527 -66 callsubr
        </CharString>
        <CharString name="comma">
          -82 callsubr
        </CharString>
        <CharString name="copyright">
          109 56 88 54 189 54 85 56 hstem
          63 57 80 56 138 57 79 57 vstem
          325 109 rmoveto
          153 109 120 171 171 -109 120 -153 -153 -109 -120 -171 -171 109 -120 153 hvcurveto
          -205 291 rmoveto
          142 81 93 124 124 81 -93 -142 -142 -81 -93 -124 -124 -81 93 142 vhcurveto
          80 hmoveto
          -86 53 -61 73 62 46 45 65 6 vhcurveto
          -57 hlineto
          -34 -4 -22 -22 -31 hhcurveto
          -41 -29 37 56 59 27 37 45 35 25 -25 -42 6 hvcurveto
          57 hlineto
          74 -9 -47 47 -67 hhcurveto
          -77 -51 -60 -90 hvcurveto
          endchar
        </CharString>
        <CharString name="currency">
          140 79 262 79 41 -20 hstem
          115 79 262 79 vstem
          325 140 rmoveto
          45 43 14 25 34 hvcurveto
          80 -80 49 49 -80 80 rlineto
          25 34 14 43 45 vvcurveto
          45 -14 43 -25 34 vhcurveto
          80 80 -49 49 -80 -80 rlineto
          25 -34 -43 14 -45 hhcurveto
          -45 -43 -14 -25 -34 hvcurveto
          -80 80 -49 -49 80 -80 rlineto
          -25 -34 -14 -43 -45 vvcurveto
          -45 14 -43 25 -34 vhcurveto
          -80 -80 49 -49 80 80 rlineto
          -25 34 43 -14 45 hhcurveto
          -131 210 rmoveto
          72 59 59 72 72 59 -59 -72 -72 -59 -59 -72 -72 -59 59 72 vhcurveto
          endchar
        </CharString>
        <CharString name="d">
          -50 callsubr
          68 97 281 96 -91 91 hintmask 10111100
          278 -15 rmoveto
          72 50 33 59 18 hvcurveto
          hintmask 01111100
          28 -77 96 848 -96 -327 -28 hlineto
          59 -18 -50 33 -72 hhcurveto
          -132 -78 -116 -198 hvcurveto
          hintmask 10111100
          -198 78 -116 132 vhcurveto
          -113 314 -91 callsubr
          vhcurveto
          hintmask 10111010
          -51 callsubr
          hintmask 10111100
          -31 callsubr
        </CharString>
        <CharString name="divide">
          95 -57 callsubr
          306 -79 callsubr
        </CharString>
        <CharString name="divide.case">
          145 -57 callsubr
          356 -79 callsubr
        </CharString>
        <CharString name="dollar">
          8 -21 826 -20 21 -20 hstemhm
          90 101 -93 100 102 71 98 100 -83 99 hintmask 10110110
          -58 callsubr
          -87 71 -55 callsubr
          -130 21 vhcurveto
          272 vlineto
          hintmask 10101101
          69 -11 38 -46 8 -84 rrcurveto
          99 hlineto
          -10 143 -76 83 -128 12 rrcurveto
          hintmask 11001110
          86 -71 -63 callsubr
          3 -269 hlineto
          hintmask 10110110
          -66 10 -36 39 -7 71 rrcurveto
          hintmask 10101110
          7 373 rmoveto
          77 37 49 65 12 vhcurveto
          -260 vlineto
          -68 14 -34 39 69 vvcurveto
          173 -493 rmoveto
          258 vlineto
          66 -14 32 -40 -67 vvcurveto
          -77 -35 -48 -63 -12 vhcurveto
          endchar
        </CharString>
        <CharString name="dollar.bold">
          -100 181 -94 94 -73 -21 361.5 101 269.5 95 -95 181 -87 -20 21 -20 hstemhm
          98 100 102 71 98 100 hintmask 0101000111100000
          -58 callsubr
          hintmask 1001000111100000
          -87 71 vlineto
          hintmask 0011100011100000
          -55 callsubr
          -131 21 vhcurveto
          -70 callsubr
          -10 143 -76 83 -128 12 rrcurveto
          hintmask 0011010011100000
          86 -71 vlineto
          hintmask 0101001011100000
          -63 callsubr
          63 -9 rlineto
          73 -12 36 -40 -71 vvcurveto
          -90 -48 -50 -84 vhcurveto
          hintmask 0101000111100000
          -90 -48 40 83 -8 hvcurveto
          endchar
        </CharString>
        <CharString name="dotlessi">
          -103 callsubr
          hstem
          304 96 vstem
          141 -101 callsubr
          163 -419 -95 callsubr
          509 vlineto
          endchar
        </CharString>
        <CharString name="e">
          -15 88 195 85 172 88 hstemhm
          97 95 -95 96 270 91 hintmask 11101100
          97 304 rmoveto
          -208 85 -111 156 120 81 69 130 28 vhcurveto
          -92 hlineto
          -74 -22 -46 -37 -69 hhcurveto
          hintmask 11110100
          -89 -50 65 130 -7 hvcurveto
          360 hlineto
          1 13 1 18 16 vvcurveto
          193 -77 105 -142 vhcurveto
          hintmask 11101100
          -149 -89 -114 -195 hvcurveto
          96 49 rmoveto
          112 11 49 60 82 hhcurveto
          77 43 -58 -114 8 hvcurveto
          endchar
        </CharString>
        <CharString name="eight">
          -15 96 272 95 271 96 hstemhm
          67 101 -99 101 310 101 -99 101 hintmask 11101100
          325 448 rmoveto
          -96 -59 51 84 84 59 52 96 96 59 -52 -84 -84 -59 -51 -96 hvcurveto
          hintmask 11110010
          -258 -240 rmoveto
          -138 98 -85 160 160 98 85 138 96 -51 67 -83 15 vhcurveto
          28 vlineto
          hintmask 11101100
          82 15 50 68 95 vvcurveto
          139 -97 84 -159 -159 -97 -84 -139 -95 50 -68 82 -15 vhcurveto
          -28 vlineto
          hintmask 11110010
          -83 -15 -51 -67 -96 vvcurveto
          101 9 rmoveto
          84 60 52 97 97 60 -52 -84 -84 -60 -52 -97 -97 -60 52 84 vhcurveto
          endchar
        </CharString>
        <CharString name="ellipsis">
          -8 175 hstem
          47 130 83 130 83 130 vstem
          325 -8 rmoveto
          43 22 31 57 56 -22 31 -43 -42 -23 -31 -56 -57 23 -31 42 hvcurveto
          -278 88 rmoveto
          -57 23 -31 42 43 22 31 57 56 -22 31 -43 -42 -23 -31 -56 vhcurveto
          426 hmoveto
          -57 22 -31 43 42 23 31 57 56 -23 31 -42 -43 -22 -31 -56 vhcurveto
          endchar
        </CharString>
        <CharString name="emdash">
          307 86 hstem
          45 560 vstem
          45 393 -32 callsubr
        </CharString>
        <CharString name="emdash.case">
          357 86 hstem
          45 560 vstem
          45 443 -32 callsubr
        </CharString>
        <CharString name="endash">
          307 86 hstem
          74 502 vstem
          74 393 -33 callsubr
        </CharString>
        <CharString name="endash.case">
          357 86 hstem
          74 502 vstem
          74 443 -33 callsubr
        </CharString>
        <CharString name="equal">
          173 -105 callsubr
          440 -62 callsubr
        </CharString>
        <CharString name="equal.case">
          223 -105 callsubr
          490 -62 callsubr
        </CharString>
        <CharString name="exclam">
          -7 154 653 -20 hstemhm
          250 150 -125 100 hintmask 11010000
          275 -107 callsubr
          -582 100 582 vlineto
          hintmask 11100000
          -125 -730 -67 callsubr
        </CharString>
        <CharString name="f">
          21 -21 508 90 176 89 hstem
          252 96 vstem
          348 hmoveto
          508 201 90 -201 75 vlineto
          66 29 35 56 56 31 -29 -55 6 vhcurveto
          95 hlineto
          109 -9 -69 64 -110 hhcurveto
          -115 -66 -70 -120 hvcurveto
          -75 -122 -90 122 -508 vlineto
          endchar
        </CharString>
        <CharString name="five">
          -15 96 263 113 -20 93 174 96 hstemhm
          79 106 -77 99 272 101 hintmask 10110110
          108 -107 callsubr
          hintmask 11010110
          -456 89 vlineto
          hintmask 10110110
          59 24 50 34 64 hhcurveto
          91 53 -63 -111 -117 -53 -65 -93 hvcurveto
          hintmask 10111010
          -84 -54 57 100 -10 hvcurveto
          -106 hlineto
          -163 13 92 -90 149 hhcurveto
          158 89 100 178 171 -78 96 -139 hvcurveto
          hintmask 11010110
          -66 -47 -27 -46 -15 hvcurveto
          -28 247 359 96 hlineto
          endchar
        </CharString>
        <CharString name="four">
          21 -21 238 96 410 56 hstemhm
          56 84 242 100 -100 212 hintmask 11111000
          482 -107 callsubr
          -177 hlineto
          -249 -426 rlineto
          -136 326 -238 100 238 vlineto
          hintmask 11110100
          112 96 hlineto
          hintmask 11111000
          -112 hlineto
          -342 hmoveto
          242 410 rlineto
          -410 vlineto
          endchar
        </CharString>
        <CharString name="g">
          -215 89 157 88 406 73 -73 88 hstemhm
          78 97 266 96 -90 90 hintmask 11011100
          537 10 rmoveto
          hintmask 11101100
          588 -96 vlineto
          hintmask 11011100
          -71 -28 vlineto
          55 -16 -48 31 -69 hhcurveto
          -127 -75 -108 -183 -183 75 -108 127 69 48 31 55 16 hvcurveto
          28 -107 hlineto
          -88 -47 -48 -85 -76 -46 35 62 -8 vhcurveto
          -103 hlineto
          -118 11 86 -68 136 hhcurveto
          144 84 83 142 hvcurveto
          -362 312 rmoveto
          129 50 74 86 vhcurveto
          hintmask 11011010
          88 48 -72 -131 -131 -48 -72 -88 hvcurveto
          hintmask 11011100
          -86 -50 74 129 hvcurveto
          endchar
        </CharString>
        <CharString name="grave">
          -102 callsubr
          173 304 vstem
          173 848 rmoveto
          212 -264 rlineto
          92 hlineto
          -176 264 rlineto
          endchar
        </CharString>
        <CharString name="greater">
          46 608 hstem
          471 65 vstem
          536 284 -74 callsubr
        </CharString>
        <CharString name="greater.case">
          96 608 hstem
          471 65 vstem
          536 334 -74 callsubr
        </CharString>
        <CharString name="guillemotleft">
          54 592 hstemhm
          89 56 -56 251 -14 56 -56 211 hintmask 10100000
          340 54 rmoveto
          126 vlineto
          hintmask 11001000
          -195 171 rlineto
          hintmask 10100000
          195 173 rlineto
          122 vlineto
          hintmask 11001000
          -251 -230 rlineto
          -134 vlineto
          237 3 rmoveto
          211 -168 rlineto
          116 vlineto
          hintmask 11010000
          -155 118 rlineto
          hintmask 11001000
          155 120 rlineto
          113 vlineto
          -211 -171 rlineto
          endchar
        </CharString>
        <CharString name="guillemotright">
          54 592 hstemhm
          113 211 -56 56 -14 251 -56 56 hintmask 10010000
          310 54 rmoveto
          hintmask 11001000
          251 228 rlineto
          134 vlineto
          hintmask 10010000
          -251 230 rlineto
          -122 vlineto
          hintmask 11001000
          195 -173 rlineto
          hintmask 10010000
          -195 -171 rlineto
          hintmask 11001000
          -197 -63 rmoveto
          211 168 rlineto
          128 vlineto
          -211 171 rlineto
          -113 vlineto
          hintmask 10101000
          155 -120 rlineto
          hintmask 11001000
          -155 -118 rlineto
          endchar
        </CharString>
        <CharString name="h">
          21 -21 523 90 235 -20 hstem
          114 96 241 96 vstem
          114 848 rmoveto
          -848 96 375 vlineto
          98 41 50 80 79 41 -50 -98 vhcurveto
          -375 96 400 vlineto
          131 -66 82 -107 -69 -50 -32 -55 -17 vhcurveto
          -28 322 hlineto
          endchar
        </CharString>
        <CharString name="hyphen">
          -64 callsubr
        </CharString>
        <CharString name="hyphen.case">
          -65 callsubr
        </CharString>
        <CharString name="i">
          -103 callsubr
          92 153 hstemhm
          278 148 -122 96 hintmask 11001000
          141 -101 callsubr
          163 -419 -95 callsubr
          509 vlineto
          hintmask 11110000
          -122 168 -98 callsubr
          endchar
        </CharString>
        <CharString name="j">
          -215 88 635 90 92 153 hstemhm
          339 148 -122 96 hintmask 11101000
          -78 callsubr
          hintmask 11110000
          -122 168 -98 callsubr
          endchar
        </CharString>
        <CharString name="k">
          21 -21 598 -20 270 -20 hstem
          138 96 vstem
          138 848 rmoveto
          -848 96 263 vlineto
          241 -263 rlineto
          122 hlineto
          -272 296 281 302 rlineto
          -117 hlineto
          -255 -277 rlineto
          527 vlineto
          endchar
        </CharString>
        <CharString name="l">
          0 89 670 89 hstem
          290 96 vstem
          127 848 rmoveto
          -89 163 -670 -95 callsubr
          759 vlineto
          endchar
        </CharString>
        <CharString name="less">
          46 608 hstem
          114 65 vstem
          114 416 -75 callsubr
        </CharString>
        <CharString name="less.case">
          96 608 hstem
          114 65 vstem
          114 466 -75 callsubr
        </CharString>
        <CharString name="m">
          21 -21 519 22 -22 24 -24 79 15 -20 hstemhm
          76 96 107 96 107 96 hintmask 10010111
          76 598 rmoveto
          -598 -35 callsubr
          36 17 -26 -50 vhcurveto
          -443 -35 callsubr
          35 18 -26 -50 vhcurveto
          -443 96 463 vlineto
          hintmask 11001111
          97 -35 53 -64 -50 -30 -25 -47 -10 vhcurveto
          -25 hlineto
          47 -14 -29 25 -42 hhcurveto
          hintmask 10101111
          -43 -27 -24 -46 -8 hvcurveto
          -29 hlineto
          hintmask 10010111
          55 vlineto
          endchar
        </CharString>
        <CharString name="minus">
          -64 callsubr
        </CharString>
        <CharString name="minus.case">
          -65 callsubr
        </CharString>
        <CharString name="multiply">
          136 428 -39 callsubr
          136 -77 callsubr
        </CharString>
        <CharString name="multiply.case">
          614 -20 hstem
          111 428 vstem
          482 186 -77 callsubr
        </CharString>
        <CharString name="n">
          21 -21 523 75 -75 90 hstemhm
          114 96 241 96 hintmask 11011000
          -38 callsubr
          375 vlineto
          hintmask 10111000
          98 41 50 80 79 41 -50 -98 vhcurveto
          -375 96 400 vlineto
          131 -66 82 -107 -69 -50 -32 -55 -17 vhcurveto
          hintmask 11011000
          -28 72 hlineto
          endchar
        </CharString>
        <CharString name="nine">
          21 -21 293 79 347 96 hstem
          71 101 306 101 vstem
          326 815 rmoveto
          -155 -100 -105 -164 -148 88 -105 125 33 32 10 15 16 hvcurveto
          21 -15 -189 -303 rlineto
          116 hlineto
          200 331 rlineto
          45 71 21 70 74 vvcurveto
          164 -98 105 -155 vhcurveto
          -154 -269 rmoveto
          105 60 68 93 93 60 -68 -105 -106 -60 -68 -93 -93 -60 68 106 vhcurveto
          endchar
        </CharString>
        <CharString name="notequal">
          173 -105 callsubr
          440 -80 callsubr
        </CharString>
        <CharString name="notequal.case">
          223 -105 callsubr
          490 -80 callsubr
        </CharString>
        <CharString name="numbersign">
          21 -21 206 84 220 84 206 -20 hstem
          46 558 vstem
          341 -107 callsubr
          -80 -88 callsubr
          -121 -84 104 hlineto
          -43 -220 rlineto
          -115 -84 98 hlineto
          -40 -206 rlineto
          80 -89 callsubr
          125 -88 callsubr
          80 -89 callsubr
          121 84 -104 hlineto
          43 220 rlineto
          115 84 -98 -89 callsubr
          -80 -88 callsubr
          -125 hlineto
          -60 -304 rmoveto
          43 220 rlineto
          125 hlineto
          -43 -220 rlineto
          endchar
        </CharString>
        <CharString name="o">
          -84 callsubr
        </CharString>
        <CharString name="one">
          0 90 624 86 0 -20 hstemhm
          307 100 hintmask 10110000
          407 -107 callsubr
          -135 hlineto
          -168 -109 rlineto
          -118 vlineto
          hintmask 11010000
          203 141 rlineto
          -624 -203 -90 489 90 -186 vlineto
          endchar
        </CharString>
        <CharString name="p">
          -52 callsubr
          108 91 -91 96 281 97 hintmask 11010110
          372 613 rmoveto
          -72 -50 -33 -59 -18 hvcurveto
          hintmask 11100110
          -28 77 -96 -798 96 277 28 hlineto
          -59 18 50 -33 72 hhcurveto
          132 78 116 198 hvcurveto
          hintmask 11010110
          198 -78 116 -132 vhcurveto
          hintmask 11011010
          -173 -314 -72 callsubr
        </CharString>
        <CharString name="parenleft">
          -146 1052 hstem
          232 96 vstem
          514 820 rmoveto
          86 vlineto
          -177 -85 -106 -198 1 -243 1 -243 106 -199 175 -84 rrcurveto
          86 vlineto
          -118 73 -67 158 -1 209 -1 209 67 158 120 73 rrcurveto
          endchar
        </CharString>
        <CharString name="parenright">
          -146 1052 hstem
          322 96 vstem
          136 906 rmoveto
          -86 vlineto
          120 -73 67 -158 -1 -209 -1 -209 -67 -158 -118 -73 rrcurveto
          -86 vlineto
          175 84 106 199 1 243 1 243 -106 198 -177 85 rrcurveto
          endchar
        </CharString>
        <CharString name="percent">
          -68 callsubr
          hintmask 11111101
          43 151 rmoveto
          564 411 rlineto
          87 vlineto
          -564 -411 rlineto
          20 405 rmoveto
          -113 48 -60 89 89 47 60 113 112 -47 60 -89 -89 -48 -60 -112 vhcurveto
          86 hmoveto
          58 18 31 33 -36 callsubr
          -33 -18 31 59 vhcurveto
          hintmask 11111011
          165 -486 rmoveto
          -112 47 -60 89 89 48 60 112 113 -48 60 -89 -89 -47 -60 -113 vhcurveto
          85 hmoveto
          59 18 31 33 33 18 -31 -59 -58 -18 -31 -33 -33 -18 31 58 vhcurveto
          endchar
        </CharString>
        <CharString name="percent.cv01">
          -15 83 -47 -21 317 83 0 83 249 83 -15 -20 hstemhm
          63 86 102 85 -22 85 102 86 hintmask 1010101011000000
          450 -15 rmoveto
          93 44 66 144 140 -44 65 -93 -93 -43 -65 -140 -144 43 -66 93 hvcurveto
          -387 620 rmoveto
          hintmask 0001101100000000
          -140 44 -65 93 93 43 65 140 144 -43 66 -93 vhcurveto
          hintmask 1010101011000000
          -93 -44 -66 -144 hvcurveto
          hintmask 0101101100000000
          30 -605 rmoveto
          77 hlineto
          117 340 rlineto
          -72 hlineto
          -66 265 rmoveto
          87 16 40 35 34 17 -40 -87 -83 -17 -39 -34 -35 -16 39 83 vhcurveto
          214 -145 rmoveto
          72 hlineto
          hintmask 1010010011000000
          122 340 rlineto
          -77 hlineto
          -81 -605 rmoveto
          83 17 39 34 35 16 -39 -83 -87 -16 -40 -35 -34 -17 40 87 vhcurveto
          endchar
        </CharString>
        <CharString name="percent.cv02">
          -68 callsubr
          hintmask 11111011
          450 -15 rmoveto
          89 48 60 112 113 -48 60 -89 -89 -47 -60 -113 -112 47 -60 89 hvcurveto
          -387 658 rmoveto
          -113 48 -60 89 vhcurveto
          hintmask 11111101
          89 47 60 113 112 -47 60 -89 hvcurveto
          hintmask 11111011
          -89 -48 -60 -112 hvcurveto
          34 -660 rmoveto
          456 713 rlineto
          121 vlineto
          -456 -713 rlineto
          52 539 rmoveto
          58 18 31 33 vhcurveto
          hintmask 11111101
          -36 callsubr
          hvcurveto
          hintmask 11111011
          -33 -18 31 59 hvcurveto
          250 -486 rmoveto
          59 18 31 33 33 18 -31 -59 -58 -18 -31 -33 -33 -18 31 58 vhcurveto
          endchar
        </CharString>
        <CharString name="period">
          -8 -76 callsubr
          endchar
        </CharString>
        <CharString name="plus">
          306 88 hstem
          281 88 vstem
          91 306 rmoveto
          190 -190 88 190 190 88 -190 190 -88 -190 -190 hlineto
          endchar
        </CharString>
        <CharString name="plus.case">
          356 88 hstem
          281 88 vstem
          91 356 rmoveto
          190 -190 88 190 190 88 -190 190 -88 -190 -190 hlineto
          endchar
        </CharString>
        <CharString name="q">
          -52 callsubr
          68 97 281 96 -91 91 hintmask 11011100
          278 613 rmoveto
          -132 -78 -116 -198 -198 78 -116 132 72 50 33 59 18 hvcurveto
          28 -277 96 hlineto
          hintmask 11101100
          798 -96 vlineto
          hintmask 11011100
          -77 -28 vlineto
          59 -18 -50 33 -72 hhcurveto
          -113 -314 -91 callsubr
          vhcurveto
          hintmask 11011010
          -51 callsubr
          hintmask 11011100
          -31 callsubr
        </CharString>
        <CharString name="question">
          -7 154 572 96 hstem
          232 150 81 102 vstem
          255 218 rmoveto
          100 hlineto
          -2 173 212 -4 216 vvcurveto
          132 -89 80 -144 -147 -94 -86 -153 -17 vhcurveto
          106 hlineto
          91 8 55 52 89 hhcurveto
          81 50 -44 -72 -176 -210 16 2 -225 hvcurveto
          -23 -148 -67 callsubr
        </CharString>
        <CharString name="quotedbl">
          -102 callsubr
          177 90 116 90 vstem
          168 -54 callsubr
          98 hmoveto
          -47 callsubr
          endchar
        </CharString>
        <CharString name="quotedblbase">
          -8 175 hstem
          116 -92 callsubr
          193 -8 -85 callsubr
        </CharString>
        <CharString name="quotedblleft">
          491 175 hstem
          136 -92 callsubr
          457 666 rmoveto
          -8 -7 -1 -1 -7 hvcurveto
          -97 callsubr
          -75 27 -36 59 50 27 31 56 57 -27 31 -50 vhcurveto
          -321 -64 rmoveto
          -75 27 -36 59 50 27 31 56 57 -27 31 -50 -8 -7 -1 -1 -7 vhcurveto
          -97 callsubr
          endchar
        </CharString>
        <CharString name="quotedblright">
          722 175 hstem
          116 -92 callsubr
          193 722 -85 callsubr
        </CharString>
        <CharString name="quoteleft">
          491 175 hstem
          239 163 vstem
          325 666 rmoveto
          -8 -7 -1 -1 -7 hvcurveto
          -97 callsubr
          -75 27 -36 59 50 27 31 56 57 -27 31 -50 vhcurveto
          endchar
        </CharString>
        <CharString name="quoteright">
          722 175 hstem
          248 163 vstem
          325 722 -83 callsubr
          endchar
        </CharString>
        <CharString name="quotesinglbase">
          -82 callsubr
        </CharString>
        <CharString name="quotesingle">
          -102 callsubr
          280 90 vstem
          271 -54 callsubr
          endchar
        </CharString>
        <CharString name="r">
          -103 callsubr
          -76 14 -14 76 -76 91 hstemhm
          212 96 175 101 hintmask 11000110
          92 598 rmoveto
          -90 120 -419 -101 -89 366 89 -169 248 vlineto
          hintmask 10010110
          125 32 60 67 51 25 -33 -70 vhcurveto
          -79 101 95 vlineto
          hintmask 10001110
          113 -50 65 -87 -60 -36 -25 -52 -15 vhcurveto
          hintmask 10100110
          -28 hlineto
          hintmask 11000110
          62 vlineto
          endchar
        </CharString>
        <CharString name="s">
          -15 89 449 90 hstem
          113 95 237 95 vstem
          203 182 rmoveto
          -94 hlineto
          -126 11 80 -71 129 hhcurveto
          130 81 70 111 97 -58 58 -115 19 hvcurveto
          -63 10 rlineto
          -67 11 -29 25 45 vvcurveto
          59 44 33 74 82 47 -41 -80 6 vhcurveto
          93 hlineto
          133 -8 -84 78 -135 hhcurveto
          -132 -82 -70 -112 -96 57 -58 116 -19 hvcurveto
          63 -11 rlineto
          66 -10 30 -25 -46 vvcurveto
          -58 -43 -34 -72 -76 -44 37 71 -7 vhcurveto
          endchar
        </CharString>
        <CharString name="section">
          -216 96 840 96 hstemhm
          109 101 -91 102 -73 102 150 102 -73 102 -91 101 hintmask 11001010
          429 611 rmoveto
          102 hlineto
          133 -10 -70 72 -120 hhcurveto
          -112 -71 -69 -109 -68 34 -49 62 -22 hvcurveto
          -28 vlineto
          hintmask 11100100
          -85 -24 -50 -63 -91 vvcurveto
          -99 67 -74 114 -26 vhcurveto
          72 -16 38 -40 -66 vvcurveto
          -57 -32 -35 -51 vhcurveto
          hintmask 11010100
          -57 -34 39 70 -5 hvcurveto
          -102 hlineto
          -133 10 70 -72 120 hhcurveto
          112 71 69 109 68 -34 49 -62 22 hvcurveto
          28 vlineto
          hintmask 11001001
          85 24 50 63 91 vvcurveto
          99 -67 74 -114 26 vhcurveto
          -72 16 -38 40 66 vvcurveto
          57 32 35 51 vhcurveto
          hintmask 11001010
          57 34 -39 -70 5 hvcurveto
          hintmask 11100001
          -219 -311 rmoveto
          69 44 43 71 71 44 -43 -69 -69 -44 -43 -71 -71 -44 43 69 vhcurveto
          endchar
        </CharString>
        <CharString name="semicolon">
          -8 175 -152 -21 436 175 hstemhm
          248 154 -154 163 hintmask 01110000
          325 430 -99 callsubr
          -87 -608 rmoveto
          hintmask 10101000
          -61 callsubr
          vhcurveto
          hintmask 01101000
          -106 callsubr
          -87 callsubr
          vhcurveto
          hintmask 01110000
          -40 callsubr
        </CharString>
        <CharString name="seven">
          21 -21 704 96 hstem
          469 81 vstem
          550 656 rmoveto
          144 -466 -96 385 vlineto
          -298 -704 rlineto
          106 hlineto
          endchar
        </CharString>
        <CharString name="six">
          -15 96 347 79 293 -20 hstem
          71 101 306 101 vstem
          324 -15 rmoveto
          155 100 105 164 148 -88 105 -125 -33 -32 -10 -15 -16 hvcurveto
          -21 15 189 303 rlineto
          -116 hlineto
          -200 -331 rlineto
          -45 -71 -21 -70 -74 vvcurveto
          -164 98 -105 155 vhcurveto
          -152 269 rmoveto
          106 60 68 93 93 60 -68 -106 -105 -60 -68 -93 -93 -60 68 105 vhcurveto
          endchar
        </CharString>
        <CharString name="slash">
          -42 callsubr
          530 848 rmoveto
          -94 hlineto
          -316 -1018 rlineto
          94 hlineto
          endchar
        </CharString>
        <CharString name="space">
          endchar
        </CharString>
        <CharString name="sterling">
          0 96 250 84 289 96 hstemhm
          94 37 -37 216 -171 101 -31 101 164 101 hintmask 11110011
          94 170 rmoveto
          -170 462 96 -425 vlineto
          121 34 58 66 101 vvcurveto
          17 -2 16 -3 16 vhcurveto
          160 84 hlineto
          hintmask 11100101
          -187 hlineto
          -18 47 -20 48 59 vvcurveto
          86 41 49 69 73 41 -52 -106 10 vhcurveto
          101 hlineto
          170 -14 -75 84 -136 hhcurveto
          -134 -77 -85 -146 -65 17 -47 16 -42 hvcurveto
          hintmask 11101001
          -78 -84 hlineto
          hintmask 11100011
          109 hlineto
          4 -16 2 -16 -17 vvcurveto
          hintmask 11110011
          -65 -38 -41 -77 -21 vhcurveto
          endchar
        </CharString>
        <CharString name="t">
          -15 90 433 90 hstem
          202 96 174 91 vstem
          298 750 rmoveto
          -96 -152 -120 -90 120 -319 hlineto
          -134 59 -70 113 114 65 76 145 10 vhcurveto
          -91 hlineto
          -88 -8 -31 -43 -55 hhcurveto
          -54 -26 38 76 hvcurveto
          319 248 90 -248 vlineto
          endchar
        </CharString>
        <CharString name="three">
          -15 96 273 93 272 96 hstemhm
          252 199 22 102 -99 102 hintmask 11101000
          575 213 rmoveto
          93 -47 66 -77 15 vhcurveto
          hintmask 11110100
          28 vlineto
          hintmask 11100100
          78 15 49 63 89 vvcurveto
          145 -92 88 -151 -159 -98 -93 -166 -15 vhcurveto
          106 hlineto
          104 12 60 59 94 hhcurveto
          88 53 -52 -85 -83 -52 -52 -84 hvcurveto
          hintmask 11110100
          -88 -93 88 hlineto
          hintmask 11101000
          82 51 -51 -85 -85 -55 -52 -90 -92 -57 55 98 -9 hvcurveto
          -103 hlineto
          -159 12 93 -90 156 hhcurveto
          153 94 87 141 hvcurveto
          endchar
        </CharString>
        <CharString name="two">
          0 96 623 96 hstemhm
          77 106 -89 83 302 101 hintmask 11011000
          365 388 rmoveto
          -271 -246 rlineto
          -142 472 96 -389 vlineto
          249 218 rlineto
          106 91 48 75 97 vvcurveto
          148 -90 90 -149 vhcurveto
          hintmask 11101000
          -154 -96 -93 -166 -14 hvcurveto
          106 hlineto
          104 12 57 59 89 hhcurveto
          86 52 -54 -88 hvcurveto
          hintmask 11011000
          -68 -38 -54 -76 -67 vhcurveto
          endchar
        </CharString>
        <CharString name="u">
          -15 90 -75 75 523 -20 hstemhm
          103 96 241 96 hintmask 01111000
          536 hmoveto
          598 -96 -375 vlineto
          hintmask 10111000
          -98 -41 -50 -80 -79 -41 50 98 vhcurveto
          375 -96 -400 vlineto
          -131 66 -82 107 69 50 32 55 17 vhcurveto
          hintmask 01111000
          28 -72 hlineto
          endchar
        </CharString>
        <CharString name="underscore">
          -121 71 hstem
          77 496 vstem
          77 -50 rmoveto
          -71 496 71 vlineto
          endchar
        </CharString>
        <CharString name="uni0237">
          -215 88 635 90 hstem
          365 96 vstem
          -78 callsubr
          endchar
        </CharString>
        <CharString name="uni0306.cy">
          -107 880 68 hstem
          16 84 144 84 vstem
          100 1024 rmoveto
          -84 hlineto
          -90 8 58 -54 90 hhcurveto
          90 58 54 90 8 hvcurveto
          -84 hlineto
          -52 -3 -24 -24 -45 hhcurveto
          -45 -24 24 52 -3 hvcurveto
          endchar
        </CharString>
        <CharString name="uni0307">
          -107 692 153 hstem
          10 148 vstem
          84 692 rmoveto
          44 30 29 47 48 -30 29 -44 -44 -30 -29 -48 -47 30 -29 44 hvcurveto
          endchar
        </CharString>
        <CharString name="uni0308">
          -107 872 127 hstem
          -127 121 112 121 vstem
          -66 872 rmoveto
          37 23 23 40 40 -23 24 -37 -38 -23 -24 -40 -40 23 -23 38 hvcurveto
          172 63 rmoveto
          -40 23 -23 37 38 23 23 40 40 -23 24 -38 -37 -23 -24 -40 vhcurveto
          endchar
        </CharString>
        <CharString name="uni043D">
          21 -21 250 90 258 -20 hstem
          114 96 230 96 vstem
          -38 callsubr
          250 230 -250 96 598 -96 -258 -230 258 vlineto
          endchar
        </CharString>
        <CharString name="uni043E">
          -84 callsubr
        </CharString>
        <CharString name="uni2002">
          endchar
        </CharString>
        <CharString name="uni2003">
          endchar
        </CharString>
        <CharString name="uni20BD">
          21 -21 156 81 90 81 -81 89 288 96 hstemhm
          148 97 255 101 hintmask 11011110
          356 800 rmoveto
          -208 hlineto
          hintmask 11101110
          -392 -95 vlineto
          hintmask 11011110
          -81 95 -90 -95 -81 95 -156 97 156 164 81 -164 90 111 vlineto
          152 93 90 147 147 -93 89 -152 hvcurveto
          -111 -384 rmoveto
          288 115 vlineto
          87 53 -55 -89 -89 -53 -55 -87 hvcurveto
          endchar
        </CharString>
        <CharString name="v">
          0 56 542 -20 hstem
          64 522 vstem
          64 598 rmoveto
          186 -598 rlineto
          150 hlineto
          186 598 rlineto
          -95 hlineto
          -163 -542 -164 542 rlineto
          endchar
        </CharString>
        <CharString name="w">
          0 60 -60 62 493 43 hstemhm
          31 587 hintmask 10110000
          31 598 rmoveto
          103 -598 rlineto
          134 hlineto
          58 555 58 -555 rlineto
          132 hlineto
          102 598 rlineto
          -97 hlineto
          hintmask 01110000
          -71 -536 -52 536 rlineto
          -139 hlineto
          hintmask 10110000
          -54 -538 -72 538 rlineto
          endchar
        </CharString>
        <CharString name="x">
          21 -21 598 -20 hstem
          73 504 vstem
          84 hmoveto
          100 hlineto
          139 251 138 -251 rlineto
          105 hlineto
          -166 294 177 304 rlineto
          -100 hlineto
          -154 -269 -145 269 rlineto
          -105 hlineto
          171 -312 rlineto
          endchar
        </CharString>
        <CharString name="y">
          -215 89 176 30 518 -20 hstem
          49 550 vstem
          49 598 rmoveto
          208 -548 rlineto
          78 hlineto
          -32 -110 rlineto
          -45 -14 -19 -21 -27 hhcurveto
          -32 -19 21 46 -9 hvcurveto
          -94 hlineto
          -101 11 55 -55 89 hhcurveto
          70 49 43 86 26 hvcurveto
          210 684 rlineto
          -103 hlineto
          -152 -518 -188 518 rlineto
          endchar
        </CharString>
        <CharString name="yen">
          0 211 -81 81 90 81 418 -20 hstemhm
          275 100 hintmask 01111000
          157 -107 callsubr
          -111 hlineto
          209 -418 rlineto
          -145 -81 165 -90 -165 -81 165 hlineto
          hintmask 10111000
          -130 100 vlineto
          hintmask 01111000
          130 165 81 -165 90 165 81 -145 vlineto
          209 418 -49 callsubr
        </CharString>
        <CharString name="z">
          -103 callsubr
          hstem
          122 50 305 51 vstem
          122 -101 callsubr
          355 vlineto
          -355 -345 rlineto
          -163 406 89 -356 vlineto
          356 345 rlineto
          164 vlineto
          endchar
        </CharString>
        <CharString name="zero">
          -81 callsubr
          73 48 -44 -94 23 vhcurveto
          -304 -261 rlineto
          -1 24 -1 26 27 vvcurveto
          18 -184 rmoveto
          304 262 rlineto
          1 -24 1 -26 -28 vvcurveto
          -44 callsubr
          -74 -47 44 94 -23 vhcurveto
          endchar
        </CharString>
</ttFont>
